<svg xmlns="http://www.w3.org/2000/svg" width="96" height="90" viewBox="0 0 96 90">
  <metadata><?xpacket begin="﻿" id="W5M0MpCehiHzreSzNTczkc9d"?>
<x:xmpmeta xmlns:x="adobe:ns:meta/" x:xmptk="Adobe XMP Core 5.6-c138 79.159824, 2016/09/14-01:09:01        ">
   <rdf:RDF xmlns:rdf="http://www.w3.org/1999/02/22-rdf-syntax-ns#">
      <rdf:Description rdf:about=""
            xmlns:xmp="http://ns.adobe.com/xap/1.0/">
         <xmp:CreatorTool>Adobe Photoshop CC 2017 (Macintosh)</xmp:CreatorTool>
      </rdf:Description>
   </rdf:RDF>
</x:xmpmeta>
                                                                                                    
                                                                                                    
                                                                                                    
                                                                                                    
                                                                                                    
                                                                                                    
                                                                                                    
                                                                                                    
                                                                                                    
                                                                                                    
                                                                                                    
                                                                                                    
                                                                                                    
                                                                                                    
                                                                                                    
                                                                                                    
                                                                                                    
                                                                                                    
                                                                                                    
                                                                                                    
                           
<?xpacket end="w"?></metadata>
<defs>
    <style>
      .cls-1 {
        fill: #db4353;
        fill-rule: evenodd;
      }
    </style>
  </defs>
  <path id="Фигура_4" data-name="Фигура 4" class="cls-1" d="M709.016,2561.79a1.6,1.6,0,0,1-1.6-1.61v-25.72a1.6,1.6,0,0,1,3.2,0v25.72a1.6,1.6,0,0,1-1.6,1.61m46.39,0a1.6,1.6,0,0,1-1.6-1.61v-25.72a1.6,1.6,0,0,1,3.2,0v25.72a1.6,1.6,0,0,1-1.6,1.61M709,2478.21a8.04,8.04,0,1,0,8,8.04,8.032,8.032,0,0,0-8-8.04m0,19.29a11.25,11.25,0,1,1,11.2-11.25A11.242,11.242,0,0,1,709,2497.5m46.407-19.29a8.04,8.04,0,1,0,8,8.04,8.032,8.032,0,0,0-8-8.04m0,19.29a11.25,11.25,0,1,1,11.2-11.25,11.242,11.242,0,0,1-11.2,11.25m4.8,67.5a6.362,6.362,0,0,1-4.8-2.18,6.393,6.393,0,0,1-11.2-4.25v-24.11h-4.8a1.593,1.593,0,0,1-1.272-.63,1.616,1.616,0,0,1-.272-1.4l2.148-7.9-0.09.18a5.273,5.273,0,0,1-4.873,3.33,5.269,5.269,0,0,1-4.827-7.31l10.249-19.77a16.119,16.119,0,0,1,8.486-8.53,1.605,1.605,0,0,1,1.266,2.95,13.029,13.029,0,0,0-6.857,6.95L733.11,2522.1a2.054,2.054,0,0,0,1.934,2.72,2.045,2.045,0,0,0,1.91-1.33,1.409,1.409,0,0,1,.067-0.15l7.351-14.77a1.6,1.6,0,0,1,2.977,1.14l-5.849,21.54h4.3a1.6,1.6,0,0,1,1.6,1.61v25.71a3.2,3.2,0,1,0,6.4,0,1.6,1.6,0,1,1,3.2,0,3.2,3.2,0,1,0,6.4,0v-25.71a1.6,1.6,0,0,1,1.6-1.61h4.305l-5.849-21.54a1.6,1.6,0,0,1,2.976-1.14l7.352,14.77a1.409,1.409,0,0,1,.067.15,2.044,2.044,0,0,0,1.909,1.33,2,2,0,0,0,1.7-.91,2.027,2.027,0,0,0,.179-1.93l-10.166-19.88a12.536,12.536,0,0,0-6.9-6.71,1.6,1.6,0,1,1,1.271-2.94,15.667,15.667,0,0,1,8.532,8.29l10.168,19.88a5.307,5.307,0,0,1-.413,5.06,5.21,5.21,0,0,1-4.364,2.36,5.275,5.275,0,0,1-4.873-3.33l-0.089-.18,2.147,7.9a1.61,1.61,0,0,1-.272,1.4,1.593,1.593,0,0,1-1.272.63h-4.8v24.11a6.419,6.419,0,0,1-6.4,6.43m-46.39,0a6.364,6.364,0,0,1-4.8-2.18,6.393,6.393,0,0,1-11.2-4.25v-40.8l-2.681,6.86a5.243,5.243,0,1,1-9.725-3.92L694,2501.06a16.166,16.166,0,0,1,8.539-8.63,1.6,1.6,0,0,1,1.265,2.95,13,13,0,0,0-6.863,6.95l-8.593,19.65a2.039,2.039,0,1,0,3.795,1.49l5.779-14.77a1.6,1.6,0,0,1,3.09.59v49.28a3.2,3.2,0,1,0,6.4,0,1.6,1.6,0,1,1,3.2,0,3.2,3.2,0,1,0,6.4,0v-49.28a1.6,1.6,0,0,1,3.092-.59l5.751,14.77a2.052,2.052,0,0,0,1.917,1.35,2,2,0,0,0,1.7-.91,2.027,2.027,0,0,0,.179-1.93L721.016,2502a12.411,12.411,0,0,0-6.855-6.6,1.617,1.617,0,0,1-.834-2.12,1.6,1.6,0,0,1,2.106-.83,15.7,15.7,0,0,1,8.526,8.29l8.638,19.98a5.241,5.241,0,1,1-9.726,3.9l-2.653-6.81v40.76a6.42,6.42,0,0,1-6.4,6.43" transform="translate(-685 -2475)"/>
</svg>
