<svg xmlns="http://www.w3.org/2000/svg" viewBox="0 0 256.89 61.99"><defs><style>.cls-1{fill:#fff;}</style></defs><title>logo-bw</title><g id="Слой_2" data-name="Слой 2"><g id="logo"><path class="cls-1" d="M123.23,21h11.2V40H140V21h11.2v-4.1h-28ZM164,30.05h11.25V26H164V21h19.22v-4.1h-24.8V40h25.07V35.62H164Zm36.16-13.17L186.48,40h5.63l2.9-5.08H210.3L213.19,40h6.34L205.6,16.89Zm-3,13.93,5.46-9.62,5.41,9.62Zm55.17-13.93L241.11,30.6l-12-13.71h-5.28V40h5.28V24.48l11.17,12.73h1.09L251.65,24.1V40h5.25V16.89ZM28.24,35H45.35L36.94,19.1ZM0,16.59V62H95.62A16.59,16.59,0,0,0,112.21,45.4V18.67l-44.85,0V27H91.44c2.4,0,5.7.08,7.58,1.89,1.42,1.36,2.1,3.86,2.1,6.43v7c0,2.35-.67,4.92-2.1,6.28-1.88,1.74-5.25,1.89-10.57,1.89H53.75l-4.58-8.47H24.56l-4.42,8.47H11.06l21.9-39h8.7L59.83,43.45H93.16v-9.3H68.11c-1.35,0-4.8-.15-6.6-1.81-2.1-2-2.1-5.75-2.1-7.41V20.77c0-1.66,0-5.44,2.1-7.41,1.8-1.66,5.1-1.81,6.67-1.81h44V0H16.59A16.59,16.59,0,0,0,0,16.59Z"/></g></g></svg>