<svg xmlns="http://www.w3.org/2000/svg" viewBox="0 0 201.33 48.7"><defs><style>.cls-1{fill:#a6d514;}.cls-2{fill:#80c41c;}</style></defs><title>logo-colour</title><g id="Слой_2" data-name="Слой 2"><g id="logo"><path class="cls-1" d="M156.89,13.35,146.15,31.46h4.41l2.27-4h12l2.27,4h5L161.13,13.35Zm-2.35,10.92,4.28-7.54,4.24,7.54Zm-58-7.71h8.78v14.9h4.37V16.56h8.78V13.35H96.58Zm32,7.11h8.82V20.45h-8.82V16.56h15.07V13.35H124.19V31.46h19.65V28H128.56Zm69.22-10.32L189,24.09l-9.44-10.75h-4.13V31.46h4.13V19.3l8.76,10h.86L197.22,19V31.46h4.11V13.35ZM0,13.12V48.7H74.94a13,13,0,0,0,13-13v-21H52.79v6.58H71.66c1.88,0,4.47.06,5.94,1.48a7.12,7.12,0,0,1,1.64,5v5.51a7.11,7.11,0,0,1-1.64,4.92c-1.47,1.36-4.12,1.48-8.28,1.48H42.12L38.53,33.1H19.25l-3.47,6.64H8.67L25.84,9.16h6.82l14.23,25H73V26.88H53.38c-1.06,0-3.76-.12-5.17-1.42-1.65-1.54-1.65-4.5-1.65-5.81V16.39c0-1.3,0-4.27,1.65-5.81,1.41-1.3,4-1.42,5.23-1.42h34.5v-9H13A13,13,0,0,0,0,13.12ZM22.13,27.53H35.54L29,15.09Z"/><path class="cls-2" d="M137.37,21.83V20.34h-7.61v1.49Zm6.25-8.6H124.19V31.34h1.21V14.73h18.23ZM105.35,31.34h1.21V17.94h-1.21Zm24.41-1.93h14.08V27.92H129.76Zm-33.19-13h1.21V14.73H118.5V13.23H96.58Zm100.64,14.9h1.21v-11l-1.21,1.54Zm.56-18.11L189,24l-9.44-10.74h-4.13V31.34h1.21V14.73h4.14l9.44,10.74L199,14.73h2.34V13.23Zm-37.93,5.2,3.22,5.72h-6.46l-.85,1.49h8.52L160,18.11Zm5.82,10.42,1.42,2.49h.36L166,28.85ZM162,14.73l-.9-1.49h-4.24L146.15,31.34h2.09l9.86-16.62ZM29,15,22.13,27.42h2.22L30,17ZM47.35,34.06,34,10.62h-.46L46.89,34.06ZM19.25,33l-3.47,6.64H10.91L10,41.2h7.12l3.46-6.64H39.39L38.53,33ZM0,13V48.58H1.35v-34a13,13,0,0,1,13-13H87.94V0H13A13,13,0,0,0,0,13ZM52.79,21.2h1.35v-5H87.94V14.63H52.79Zm25.64,2.64a8.72,8.72,0,0,1,.81,3.88v5.51a7.12,7.12,0,0,1-1.64,4.92c-1.47,1.36-4.12,1.48-8.28,1.48H42.63l.85,1.57H70.67c4.17,0,6.81-.12,8.28-1.48A7.11,7.11,0,0,0,80.6,34.8V29.29a7.12,7.12,0,0,0-1.65-5A3.75,3.75,0,0,0,78.43,23.84ZM73,28.34V26.77H53.38a9.46,9.46,0,0,1-4.67-1.05,4.13,4.13,0,0,0,.86,1.2c1.41,1.3,4.11,1.42,5.17,1.42Z"/></g></g></svg>