<svg xmlns="http://www.w3.org/2000/svg" width="48" height="90" viewBox="0 0 48 90">
  <metadata><?xpacket begin="﻿" id="W5M0MpCehiHzreSzNTczkc9d"?>
<x:xmpmeta xmlns:x="adobe:ns:meta/" x:xmptk="Adobe XMP Core 5.6-c138 79.159824, 2016/09/14-01:09:01        ">
   <rdf:RDF xmlns:rdf="http://www.w3.org/1999/02/22-rdf-syntax-ns#">
      <rdf:Description rdf:about=""
            xmlns:xmp="http://ns.adobe.com/xap/1.0/">
         <xmp:CreatorTool>Adobe Photoshop CC 2017 (Macintosh)</xmp:CreatorTool>
      </rdf:Description>
   </rdf:RDF>
</x:xmpmeta>
                                                                                                    
                                                                                                    
                                                                                                    
                                                                                                    
                                                                                                    
                                                                                                    
                                                                                                    
                                                                                                    
                                                                                                    
                                                                                                    
                                                                                                    
                                                                                                    
                                                                                                    
                                                                                                    
                                                                                                    
                                                                                                    
                                                                                                    
                                                                                                    
                                                                                                    
                                                                                                    
                           
<?xpacket end="w"?></metadata>
<defs>
    <style>
      .cls-1 {
        fill: #db4353;
        fill-rule: evenodd;
      }
    </style>
  </defs>
  <path id="Фигура_2" data-name="Фигура 2" class="cls-1" d="M329.009,2561.79a1.6,1.6,0,0,1-1.6-1.61v-25.72a1.6,1.6,0,1,1,3.2,0v25.72a1.6,1.6,0,0,1-1.6,1.61m-0.017-83.58a8.04,8.04,0,1,0,8,8.04,8.031,8.031,0,0,0-8-8.04m0,19.29a11.25,11.25,0,1,1,11.2-11.25,11.239,11.239,0,0,1-11.2,11.25m4.816,67.5a6.359,6.359,0,0,1-4.8-2.18,6.391,6.391,0,0,1-11.2-4.25v-40.8l-2.679,6.86a5.266,5.266,0,0,1-4.9,3.39,5.267,5.267,0,0,1-4.824-7.31L314,2501.06a16.171,16.171,0,0,1,8.536-8.63,1.586,1.586,0,0,1,2.1.84,1.61,1.61,0,0,1-.836,2.11,13.014,13.014,0,0,0-6.863,6.95l-8.591,19.65a2.028,2.028,0,0,0,.19,1.91,2,2,0,0,0,1.7.91,2.044,2.044,0,0,0,1.909-1.33l5.777-14.77a1.6,1.6,0,0,1,3.089.59v49.28a3.2,3.2,0,1,0,6.4,0,1.6,1.6,0,1,1,3.2,0,3.2,3.2,0,1,0,6.4,0v-49.28a1.6,1.6,0,0,1,3.089-.59l5.751,14.77a2.052,2.052,0,0,0,1.917,1.35,2,2,0,0,0,1.7-.91,2.033,2.033,0,0,0,.181-1.93L341.007,2502a12.424,12.424,0,0,0-6.855-6.6,1.606,1.606,0,0,1,1.272-2.95,15.711,15.711,0,0,1,8.524,8.29l8.637,19.98a5.261,5.261,0,0,1-.458,4.96,5.206,5.206,0,0,1-4.362,2.36,5.272,5.272,0,0,1-4.9-3.42l-2.654-6.81v40.76a6.419,6.419,0,0,1-6.4,6.43" transform="translate(-305 -2475)"/>
</svg>
