<svg xmlns="http://www.w3.org/2000/svg" width="52" height="90" viewBox="0 0 52 90">
  <metadata><?xpacket begin="﻿" id="W5M0MpCehiHzreSzNTczkc9d"?>
<x:xmpmeta xmlns:x="adobe:ns:meta/" x:xmptk="Adobe XMP Core 5.6-c138 79.159824, 2016/09/14-01:09:01        ">
   <rdf:RDF xmlns:rdf="http://www.w3.org/1999/02/22-rdf-syntax-ns#">
      <rdf:Description rdf:about=""
            xmlns:xmp="http://ns.adobe.com/xap/1.0/">
         <xmp:CreatorTool>Adobe Photoshop CC 2017 (Macintosh)</xmp:CreatorTool>
      </rdf:Description>
   </rdf:RDF>
</x:xmpmeta>
                                                                                                    
                                                                                                    
                                                                                                    
                                                                                                    
                                                                                                    
                                                                                                    
                                                                                                    
                                                                                                    
                                                                                                    
                                                                                                    
                                                                                                    
                                                                                                    
                                                                                                    
                                                                                                    
                                                                                                    
                                                                                                    
                                                                                                    
                                                                                                    
                                                                                                    
                                                                                                    
                           
<?xpacket end="w"?></metadata>
<defs>
    <style>
      .cls-1 {
        fill: #db4353;
        fill-rule: evenodd;
      }
    </style>
  </defs>
  <path id="Фигура_3" data-name="Фигура 3" class="cls-1" d="M521,2561.79a1.617,1.617,0,0,1-1.625-1.61v-25.72a1.626,1.626,0,0,1,3.251,0v25.72a1.618,1.618,0,0,1-1.626,1.61m0-83.58a8.04,8.04,0,1,0,8.127,8.04,8.1,8.1,0,0,0-8.127-8.04m0,19.29a11.251,11.251,0,1,1,11.378-11.25A11.329,11.329,0,0,1,521,2497.5m4.876,67.5a6.507,6.507,0,0,1-4.876-2.18,6.514,6.514,0,0,1-11.377-4.25v-24.11H504.75a1.625,1.625,0,0,1-1.292-.63,1.593,1.593,0,0,1-.277-1.4l2.181-7.91-0.091.19a5.348,5.348,0,0,1-9.381.98,5.219,5.219,0,0,1-.471-4.96l10.41-19.77a16.244,16.244,0,0,1,8.617-8.53,1.641,1.641,0,0,1,2.138.84,1.6,1.6,0,0,1-.85,2.11,13.143,13.143,0,0,0-6.966,6.95l-10.411,19.77a1.981,1.981,0,0,0,.241,1.81,2.043,2.043,0,0,0,1.724.91,2.072,2.072,0,0,0,1.938-1.33c0.019-.05.044-0.1,0.068-0.15l7.468-14.77a1.641,1.641,0,0,1,2.035-.79,1.611,1.611,0,0,1,.988,1.93l-5.942,21.54h4.374a1.617,1.617,0,0,1,1.625,1.61v25.71a3.251,3.251,0,0,0,6.5,0,1.626,1.626,0,0,1,3.251,0,3.251,3.251,0,0,0,6.5,0v-25.71a1.617,1.617,0,0,1,1.625-1.61h4.374l-5.942-21.54a1.611,1.611,0,0,1,.988-1.93,1.641,1.641,0,0,1,2.035.79l7.468,14.77c0.025,0.05.049,0.1,0.069,0.15a2.07,2.07,0,0,0,1.937,1.33,2.047,2.047,0,0,0,1.729-.91,2,2,0,0,0,.179-1.93l-10.327-19.88a12.647,12.647,0,0,0-7.014-6.71,1.593,1.593,0,0,1-.846-2.11,1.637,1.637,0,0,1,2.135-.84,15.858,15.858,0,0,1,8.668,8.3l10.328,19.88a5.238,5.238,0,0,1-.413,5.06,5.348,5.348,0,0,1-9.388-.97l-0.091-.19,2.181,7.91a1.6,1.6,0,0,1-.276,1.4,1.627,1.627,0,0,1-1.292.63h-4.876v24.11a6.47,6.47,0,0,1-6.5,6.43" transform="translate(-495 -2475)"/>
</svg>
